<?xml version="1.0" encoding="UTF-8"?>
<!DOCTYPE svg PUBLIC "-//W3C//DTD SVG 1.1//EN" "http://www.w3.org/Graphics/SVG/1.1/DTD/svg11.dtd">
<!-- Creator: CorelDRAW X7 -->
<?xml-stylesheet href="estrella.css" type="text/css"?>
<svg xmlns="http://www.w3.org/2000/svg" xml:space="preserve" width="1080px" height="300px" version="1.1" style="shape-rendering:geometricPrecision; text-rendering:geometricPrecision; image-rendering:optimizeQuality; fill-rule:evenodd; clip-rule:evenodd"
viewBox="0 0 1080 300"
 xmlns:xlink="http://www.w3.org/1999/xlink">
 <defs>
   <clipPath id="id0">
    <path d="M-1876 -1453l113 0 0 113 -113 0 0 -113z"/>
   </clipPath>
    <clipPath id="id1">
     <path d="M-1876 -1453l113 0 0 113 -113 0 0 -113z"/>
    </clipPath>
    <clipPath id="id2">
     <path d="M-1876 -1453l113 0 0 113 -113 0 0 -113z"/>
    </clipPath>
   <clipPath id="id3">
    <path d="M-2042 -1453l113 0 0 113 -113 0 0 -113z"/>
   </clipPath>
    <clipPath id="id4">
     <path d="M-2042 -1453l113 0 0 113 -113 0 0 -113z"/>
    </clipPath>
    <clipPath id="id5">
     <path d="M-2042 -1453l113 0 0 113 -113 0 0 -113z"/>
    </clipPath>
   <clipPath id="id6">
    <path d="M-2208 -1453l113 0 0 113 -113 0 0 -113z"/>
   </clipPath>
    <clipPath id="id7">
     <path d="M-2208 -1453l113 0 0 113 -113 0 0 -113z"/>
    </clipPath>
    <clipPath id="id8">
     <path d="M-2208 -1453l113 0 0 113 -113 0 0 -113z"/>
    </clipPath>
   <clipPath id="id9">
    <path d="M-2373 -1453l113 0 0 113 -113 0 0 -113z"/>
   </clipPath>
    <clipPath id="id10">
     <path d="M-2373 -1453l113 0 0 113 -113 0 0 -113z"/>
    </clipPath>
    <clipPath id="id11">
     <path d="M-2373 -1453l113 0 0 113 -113 0 0 -113z"/>
    </clipPath>
   <clipPath id="id12">
    <path d="M-2539 -1453l113 0 0 113 -113 0 0 -113z"/>
   </clipPath>
    <clipPath id="id13">
     <path d="M-2539 -1453l113 0 0 113 -113 0 0 -113z"/>
    </clipPath>
    <clipPath id="id14">
     <path d="M-2539 -1453l113 0 0 113 -113 0 0 -113z"/>
    </clipPath>
   <clipPath id="id15">
    <path d="M-2705 -1453l113 0 0 113 -113 0 0 -113z"/>
   </clipPath>
    <clipPath id="id16">
     <path d="M-2705 -1453l113 0 0 113 -113 0 0 -113z"/>
    </clipPath>
    <clipPath id="id17">
     <path d="M-2705 -1453l113 0 0 113 -113 0 0 -113z"/>
    </clipPath>
   <clipPath id="id18">
    <path d="M-2870 -1453l113 0 0 113 -113 0 0 -113z"/>
   </clipPath>
    <clipPath id="id19">
     <path d="M-2870 -1453l113 0 0 113 -113 0 0 -113z"/>
    </clipPath>
    <clipPath id="id20">
     <path d="M-2870 -1453l113 0 0 113 -113 0 0 -113z"/>
    </clipPath>
   <clipPath id="id21">
    <path d="M-3036 -1453l113 0 0 113 -113 0 0 -113z"/>
   </clipPath>
    <clipPath id="id22">
     <path d="M-3036 -1453l113 0 0 113 -113 0 0 -113z"/>
    </clipPath>
    <clipPath id="id23">
     <path d="M-3036 -1453l113 0 0 113 -113 0 0 -113z"/>
    </clipPath>
   <clipPath id="id24">
    <path d="M-3699 -1456l113 0 0 113 -113 0 0 -113z"/>
   </clipPath>
    <clipPath id="id25">
     <path d="M-3699 -1456l113 0 0 113 -113 0 0 -113z"/>
    </clipPath>
    <clipPath id="id26">
     <path d="M-3699 -1456l113 0 0 113 -113 0 0 -113z"/>
    </clipPath>
   <clipPath id="id27">
    <path d="M-3533 -1456l113 0 0 113 -113 0 0 -113z"/>
   </clipPath>
    <clipPath id="id28">
     <path d="M-3533 -1456l113 0 0 113 -113 0 0 -113z"/>
    </clipPath>
    <clipPath id="id29">
     <path d="M-3533 -1456l113 0 0 113 -113 0 0 -113z"/>
    </clipPath>
   <clipPath id="id30">
    <path d="M-3367 -1456l113 0 0 113 -113 0 0 -113z"/>
   </clipPath>
    <clipPath id="id31">
     <path d="M-3367 -1456l113 0 0 113 -113 0 0 -113z"/>
    </clipPath>
    <clipPath id="id32">
     <path d="M-3367 -1456l113 0 0 113 -113 0 0 -113z"/>
    </clipPath>
   <clipPath id="id33">
    <path d="M-3202 -1456l113 0 0 113 -113 0 0 -113z"/>
   </clipPath>
    <clipPath id="id34">
     <path d="M-3202 -1456l113 0 0 113 -113 0 0 -113z"/>
    </clipPath>
    <clipPath id="id35">
     <path d="M-3202 -1456l113 0 0 113 -113 0 0 -113z"/>
    </clipPath>
   <clipPath id="id36">
    <rect x="-3202" y="-1272" width="114" height="114"/>
   </clipPath>
   <clipPath id="id37">
    <rect x="-3368" y="-1274" width="114" height="114"/>
   </clipPath>
   <clipPath id="id38">
    <rect x="-3534" y="-1272" width="114" height="114"/>
   </clipPath>
   <clipPath id="id39">
    <rect x="-3699" y="-1276" width="114" height="114"/>
   </clipPath>
   <clipPath id="id40">
    <path d="M-3699 -1081l114 0 0 114 -114 0 0 -114z"/>
   </clipPath>
    <clipPath id="id41">
     <path d="M-3699 -1081l114 0 0 114 -114 0 0 -114z"/>
    </clipPath>
    <clipPath id="id42">
     <path d="M-3699 -1081l114 0 0 114 -114 0 0 -114z"/>
    </clipPath>
   <clipPath id="id43">
    <path d="M-3534 -1081l114 0 0 114 -114 0 0 -114z"/>
   </clipPath>
    <clipPath id="id44">
     <path d="M-3534 -1081l114 0 0 114 -114 0 0 -114z"/>
    </clipPath>
    <clipPath id="id45">
     <path d="M-3534 -1081l114 0 0 114 -114 0 0 -114z"/>
    </clipPath>
   <clipPath id="id46">
    <path d="M-3368 -1081l114 0 0 114 -114 0 0 -114z"/>
   </clipPath>
    <clipPath id="id47">
     <path d="M-3368 -1081l114 0 0 114 -114 0 0 -114z"/>
    </clipPath>
    <clipPath id="id48">
     <path d="M-3368 -1081l114 0 0 114 -114 0 0 -114z"/>
    </clipPath>
   <clipPath id="id49">
    <path d="M-3203 -1081l114 0 0 114 -114 0 0 -114z"/>
   </clipPath>
    <clipPath id="id50">
     <path d="M-3203 -1081l114 0 0 114 -114 0 0 -114z"/>
    </clipPath>
    <clipPath id="id51">
     <path d="M-3203 -1081l114 0 0 114 -114 0 0 -114z"/>
    </clipPath>
   <clipPath id="id52">
    <path d="M-3038 -1081l114 0 0 114 -114 0 0 -114z"/>
   </clipPath>
    <clipPath id="id53">
     <path d="M-3038 -1081l114 0 0 114 -114 0 0 -114z"/>
    </clipPath>
    <clipPath id="id54">
     <path d="M-3038 -1081l114 0 0 114 -114 0 0 -114z"/>
    </clipPath>
   <clipPath id="id55">
    <path d="M-3038 -1272l114 0 0 114 -114 0 0 -114z"/>
   </clipPath>
    <clipPath id="id56">
     <path d="M-3038 -1272l114 0 0 114 -114 0 0 -114z"/>
    </clipPath>
    <clipPath id="id57">
     <path d="M-3038 -1272l114 0 0 114 -114 0 0 -114z"/>
    </clipPath>
   <clipPath id="id58">
    <path d="M-3699 -912l114 0 0 114 -114 0 0 -114z"/>
   </clipPath>
    <clipPath id="id59">
     <path d="M-3699 -912l114 0 0 114 -114 0 0 -114z"/>
    </clipPath>
    <clipPath id="id60">
     <path d="M-3699 -912l114 0 0 114 -114 0 0 -114z"/>
    </clipPath>
   <clipPath id="id61">
    <path d="M-3534 -912l114 0 0 114 -114 0 0 -114z"/>
   </clipPath>
    <clipPath id="id62">
     <path d="M-3534 -912l114 0 0 114 -114 0 0 -114z"/>
    </clipPath>
    <clipPath id="id63">
     <path d="M-3534 -912l114 0 0 114 -114 0 0 -114z"/>
    </clipPath>
   <clipPath id="id64">
    <path d="M-3368 -912l114 0 0 114 -114 0 0 -114z"/>
   </clipPath>
    <clipPath id="id65">
     <path d="M-3368 -912l114 0 0 114 -114 0 0 -114z"/>
    </clipPath>
    <clipPath id="id66">
     <path d="M-3368 -912l114 0 0 114 -114 0 0 -114z"/>
    </clipPath>
   <clipPath id="id67">
    <path d="M-3203 -912l114 0 0 114 -114 0 0 -114z"/>
   </clipPath>
    <clipPath id="id68">
     <path d="M-3203 -912l114 0 0 114 -114 0 0 -114z"/>
    </clipPath>
    <clipPath id="id69">
     <path d="M-3203 -912l114 0 0 114 -114 0 0 -114z"/>
    </clipPath>
   <clipPath id="id70">
    <path d="M-1724 -1453l113 0 0 113 -113 0 0 -113z"/>
   </clipPath>
    <clipPath id="id71">
     <path d="M-1724 -1453l113 0 0 113 -113 0 0 -113z"/>
    </clipPath>
    <clipPath id="id72">
     <path d="M-1724 -1453l113 0 0 113 -113 0 0 -113z"/>
    </clipPath>
   <clipPath id="id73">
    <path d="M-3876 -1456l113 0 0 113 -113 0 0 -113z"/>
   </clipPath>
    <clipPath id="id74">
     <path d="M-3876 -1456l113 0 0 113 -113 0 0 -113z"/>
    </clipPath>
    <clipPath id="id75">
     <path d="M-3876 -1456l113 0 0 113 -113 0 0 -113z"/>
    </clipPath>
   <clipPath id="id76">
    <path d="M-1583 -1453l113 0 0 113 -113 0 0 -113z"/>
   </clipPath>
    <clipPath id="id77">
     <path d="M-1583 -1453l113 0 0 113 -113 0 0 -113z"/>
    </clipPath>
    <clipPath id="id78">
     <path d="M-1583 -1453l113 0 0 113 -113 0 0 -113z"/>
    </clipPath>
   <clipPath id="id79">
    <path d="M-3618 -622c15,0 27,12 27,27 0,15 -12,28 -27,28 -15,0 -27,-13 -27,-28 0,-15 12,-27 27,-27z"/>
   </clipPath>
    <clipPath id="id80">
     <path d="M-3618 -622c15,0 27,12 27,27 0,15 -12,28 -27,28 -15,0 -27,-13 -27,-28 0,-15 12,-27 27,-27z"/>
    </clipPath>
    <clipPath id="id81">
     <path d="M-3618 -622c15,0 27,12 27,27 0,15 -12,28 -27,28 -15,0 -27,-13 -27,-28 0,-15 12,-27 27,-27z"/>
    </clipPath>
    <clipPath id="id82">
     <path d="M-3245 -687l38 0 0 38 -38 0 0 -38z"/>
    </clipPath>
    <clipPath id="id83">
     <path d="M-3603 -587l21 0 0 21 -21 0 0 -21z"/>
    </clipPath>
   <clipPath id="id84">
    <path d="M-3792 -440l340 0 0 200 -340 0 0 -200z"/>
   </clipPath>
    <clipPath id="id85">
     <path d="M-3792 -440l340 0 0 200 -340 0 0 -200z"/>
    </clipPath>
    <clipPath id="id86">
     <path d="M-3792 -440l340 0 0 200 -340 0 0 -200z"/>
    </clipPath>
   <clipPath id="id87">
    <path d="M-3411 -440l340 0 0 200 -340 0 0 -200z"/>
   </clipPath>
    <clipPath id="id88">
     <path d="M-3411 -440l340 0 0 200 -340 0 0 -200z"/>
    </clipPath>
    <clipPath id="id89">
     <path d="M-3411 -440l340 0 0 200 -340 0 0 -200z"/>
    </clipPath>
   <clipPath id="id90">
    <path d="M-3030 -440l340 0 0 200 -340 0 0 -200z"/>
   </clipPath>
    <clipPath id="id91">
     <path d="M-3030 -440l340 0 0 200 -340 0 0 -200z"/>
    </clipPath>
    <clipPath id="id92">
     <path d="M-3030 -440l340 0 0 200 -340 0 0 -200z"/>
    </clipPath>
   <clipPath id="id93">
    <path d="M-2649 -440l340 0 0 200 -340 0 0 -200z"/>
   </clipPath>
    <clipPath id="id94">
     <path d="M-2649 -440l340 0 0 200 -340 0 0 -200z"/>
    </clipPath>
    <clipPath id="id95">
     <path d="M-2649 -440l340 0 0 200 -340 0 0 -200z"/>
    </clipPath>
   <clipPath id="id96">
    <path d="M-2267 -440l340 0 0 200 -340 0 0 -200z"/>
   </clipPath>
    <clipPath id="id97">
     <path d="M-2267 -440l340 0 0 200 -340 0 0 -200z"/>
    </clipPath>
    <clipPath id="id98">
     <path d="M-2267 -440l340 0 0 200 -340 0 0 -200z"/>
    </clipPath>
   <clipPath id="id99">
    <path d="M-3792 -196l340 0 0 200 -340 0 0 -200z"/>
   </clipPath>
    <clipPath id="id100">
     <path d="M-3792 -196l340 0 0 200 -340 0 0 -200z"/>
    </clipPath>
    <clipPath id="id101">
     <path d="M-3792 -196l340 0 0 200 -340 0 0 -200z"/>
    </clipPath>
   <clipPath id="id102">
    <path d="M-3411 -196l340 0 0 200 -340 0 0 -200z"/>
   </clipPath>
    <clipPath id="id103">
     <path d="M-3411 -196l340 0 0 200 -340 0 0 -200z"/>
    </clipPath>
    <clipPath id="id104">
     <path d="M-3411 -196l340 0 0 200 -340 0 0 -200z"/>
    </clipPath>
 </defs>
 <g id="Capa_x0020_1">
  <metadata id="CorelCorpID_0Corel-Layer"/>
  <rect class="fil0" x="-3956" y="-1572" width="2450" height="2370"/>
  <g>
  </g>
  <g style="clip-path:url(#id0)">
   <g>
   </g>
   <g style="clip-path:url(#id1)">
    <image x="-1914" y="-1459" width="188" height="125" xlink:href="estrella_Images\estrella_ImgID1.png"/>
   </g>
   <g style="clip-path:url(#id2)">
   </g>
  </g>
  <polygon class="fil1" points="-1876,-1453 -1763,-1453 -1763,-1340 -1876,-1340 "/>
  <g>
  </g>
  <g style="clip-path:url(#id3)">
   <g>
   </g>
   <g style="clip-path:url(#id4)">
    <image x="-2075" y="-1456" width="179" height="119" xlink:href="estrella_Images\estrella_ImgID2.png"/>
   </g>
   <g style="clip-path:url(#id5)">
   </g>
  </g>
  <polygon class="fil1" points="-2042,-1453 -1929,-1453 -1929,-1340 -2042,-1340 "/>
  <g>
  </g>
  <g style="clip-path:url(#id6)">
   <g>
   </g>
   <g style="clip-path:url(#id7)">
    <image x="-2229" y="-1459" width="156" height="126" xlink:href="estrella_Images\estrella_ImgID3.png"/>
   </g>
   <g style="clip-path:url(#id8)">
   </g>
  </g>
  <polygon class="fil1" points="-2208,-1453 -2095,-1453 -2095,-1340 -2208,-1340 "/>
  <g>
  </g>
  <g style="clip-path:url(#id9)">
   <g>
   </g>
   <g style="clip-path:url(#id10)">
    <image x="-2399" y="-1457" width="164" height="123" xlink:href="estrella_Images\estrella_ImgID4.png"/>
   </g>
   <g style="clip-path:url(#id11)">
   </g>
  </g>
  <polygon class="fil1" points="-2373,-1453 -2260,-1453 -2260,-1340 -2373,-1340 "/>
  <g>
  </g>
  <g style="clip-path:url(#id12)">
   <g>
   </g>
   <g style="clip-path:url(#id13)">
    <image x="-2609" y="-1467" width="253" height="143" xlink:href="estrella_Images\estrella_ImgID5.png"/>
   </g>
   <g style="clip-path:url(#id14)">
   </g>
  </g>
  <polygon class="fil1" points="-2539,-1453 -2426,-1453 -2426,-1340 -2539,-1340 "/>
  <g>
  </g>
  <g style="clip-path:url(#id15)">
   <g>
   </g>
   <g style="clip-path:url(#id16)">
    <image x="-2759" y="-1457" width="221" height="123" xlink:href="estrella_Images\estrella_ImgID6.png"/>
   </g>
   <g style="clip-path:url(#id17)">
   </g>
  </g>
  <polygon class="fil1" points="-2705,-1453 -2592,-1453 -2592,-1340 -2705,-1340 "/>
  <g>
  </g>
  <g style="clip-path:url(#id18)">
   <g>
   </g>
   <g style="clip-path:url(#id19)">
    <image x="-2884" y="-1453" width="151" height="115" xlink:href="estrella_Images\estrella_ImgID7.png"/>
   </g>
   <g style="clip-path:url(#id20)">
   </g>
  </g>
  <polygon class="fil1" points="-2870,-1453 -2757,-1453 -2757,-1340 -2870,-1340 "/>
  <g>
  </g>
  <g style="clip-path:url(#id21)">
   <g>
   </g>
   <g style="clip-path:url(#id22)">
    <image x="-3046" y="-1471" width="132" height="165" xlink:href="estrella_Images\estrella_ImgID8.png"/>
   </g>
   <g style="clip-path:url(#id23)">
   </g>
  </g>
  <polygon class="fil1 str0" points="-3036,-1453 -2923,-1453 -2923,-1340 -3036,-1340 "/>
  <g>
  </g>
  <g style="clip-path:url(#id24)">
   <g>
   </g>
   <g style="clip-path:url(#id25)">
    <image x="-3715" y="-1461" width="146" height="125" xlink:href="estrella_Images\estrella_ImgID9.png"/>
   </g>
   <g style="clip-path:url(#id26)">
   </g>
  </g>
  <polygon class="fil1" points="-3699,-1456 -3586,-1456 -3586,-1343 -3699,-1343 "/>
  <g>
  </g>
  <g style="clip-path:url(#id27)">
   <g>
   </g>
   <g style="clip-path:url(#id28)">
    <image x="-3551" y="-1462" width="148" height="127" xlink:href="estrella_Images\estrella_ImgID10.png"/>
   </g>
   <g style="clip-path:url(#id29)">
   </g>
  </g>
  <polygon class="fil1" points="-3533,-1456 -3420,-1456 -3420,-1343 -3533,-1343 "/>
  <g>
  </g>
  <g style="clip-path:url(#id30)">
   <g>
   </g>
   <g style="clip-path:url(#id31)">
    <image x="-3385" y="-1456" width="148" height="115" xlink:href="estrella_Images\estrella_ImgID11.png"/>
   </g>
   <g style="clip-path:url(#id32)">
   </g>
  </g>
  <polygon class="fil1" points="-3367,-1456 -3254,-1456 -3254,-1343 -3367,-1343 "/>
  <g>
  </g>
  <g style="clip-path:url(#id33)">
   <g>
   </g>
   <g style="clip-path:url(#id34)">
    <image x="-3252" y="-1459" width="213" height="120" xlink:href="estrella_Images\estrella_ImgID12.png"/>
   </g>
   <g style="clip-path:url(#id35)">
   </g>
  </g>
  <polygon class="fil1" points="-3202,-1456 -3089,-1456 -3089,-1343 -3202,-1343 "/>
  <path class="fil2" d="M-3956 -1698l0 -52 8 0 0 7c2,-2 4,-4 6,-6 3,-1 6,-2 10,-2 3,0 7,1 9,2 2,2 4,4 5,7 4,-6 10,-9 16,-9 5,0 9,1 12,4 3,3 4,7 4,13l0 36 -8 0 0 -33c0,-3 -1,-6 -1,-7 -1,-2 -2,-3 -3,-4 -2,-1 -4,-1 -6,-1 -3,0 -6,1 -9,3 -2,3 -3,7 -3,12l0 30 -9 0 0 -34c0,-4 -1,-7 -2,-8 -2,-2 -4,-3 -7,-3 -3,0 -5,0 -7,2 -2,1 -4,3 -5,5 -1,3 -1,6 -1,11l0 27 -9 0z"/>
  <path id="1" class="fil2" d="M-3876 -1724c0,-10 3,-17 8,-21 4,-4 10,-6 16,-6 7,0 13,2 18,7 4,5 7,11 7,19 0,7 -1,12 -3,16 -2,4 -5,7 -9,9 -4,2 -8,3 -13,3 -7,0 -13,-2 -17,-7 -5,-5 -7,-11 -7,-20zm9 0c0,7 1,12 4,15 3,3 7,5 11,5 5,0 8,-2 11,-5 3,-3 5,-8 5,-15 0,-7 -2,-11 -5,-15 -3,-3 -6,-5 -11,-5 -4,0 -8,2 -11,5 -3,3 -4,8 -4,15z"/>
  <path id="2" class="fil2" d="M-3809 -1698l-8 0 0 -72 9 0 0 26c3,-5 8,-7 14,-7 3,0 6,1 9,2 3,1 5,3 7,5 2,3 3,5 4,9 1,3 2,7 2,10 0,9 -2,16 -7,21 -4,5 -9,7 -16,7 -6,0 -10,-2 -14,-8l0 7zm0 -26c0,6 1,10 2,13 3,5 7,7 12,7 4,0 7,-2 10,-5 2,-3 4,-8 4,-15 0,-7 -2,-12 -4,-15 -3,-3 -6,-5 -10,-5 -4,0 -7,2 -10,5 -3,4 -4,8 -4,15z"/>
  <path id="3" class="fil2" d="M-3761 -1760l0 -10 8 0 0 10 -8 0zm0 62l0 -52 8 0 0 52 -8 0z"/>
  <polygon id="4" class="fil2" points="-3739,-1698 -3739,-1770 -3731,-1770 -3731,-1698 "/>
  <path id="5" class="fil2" d="M-3682 -1715l9 1c-1,6 -4,10 -7,13 -4,3 -9,4 -15,4 -8,0 -14,-2 -18,-7 -5,-5 -7,-11 -7,-20 0,-8 2,-15 7,-20 4,-5 10,-7 17,-7 7,0 13,2 17,7 5,5 7,11 7,20 0,0 0,1 0,2l-39 0c0,6 2,10 5,13 3,3 6,5 11,5 3,0 6,-1 8,-3 2,-1 4,-4 5,-8zm-28 -14l28 0c0,-4 -1,-8 -3,-10 -3,-3 -6,-5 -11,-5 -4,0 -7,2 -10,4 -3,3 -4,7 -4,11z"/>
  <rect class="fil3" x="1464" y="-1572" width="2450" height="2370"/>
  <path class="fil2" d="M1500 -1697l0 -6c-4,5 -9,7 -15,7 -4,0 -8,-1 -11,-3 -4,-2 -6,-6 -8,-10 -2,-4 -3,-8 -3,-14 0,-5 1,-10 2,-14 2,-4 5,-7 8,-9 4,-3 7,-4 12,-4 3,0 6,1 8,2 3,2 4,3 6,5l0 -25 9 0 0 71 -8 0zm-28 -26c0,7 1,12 4,15 3,4 6,5 10,5 4,0 7,-1 10,-5 2,-3 4,-7 4,-14 0,-7 -2,-12 -4,-15 -3,-4 -6,-5 -10,-5 -4,0 -8,1 -10,4 -3,3 -4,9 -4,15z"/>
  <path id="1" class="fil2" d="M1557 -1714l9 2c-1,5 -4,9 -8,12 -4,3 -8,4 -15,4 -7,0 -13,-2 -18,-7 -4,-4 -6,-11 -6,-19 0,-9 2,-16 7,-21 4,-4 10,-7 17,-7 7,0 13,3 17,7 4,5 7,12 7,20 0,1 0,2 -1,3l-38 0c0,5 2,10 5,13 3,3 6,4 10,4 4,0 6,-1 9,-2 2,-2 4,-5 5,-9zm-29 -14l29 0c0,-4 -1,-7 -3,-9 -3,-4 -6,-6 -11,-6 -4,0 -7,2 -10,4 -3,3 -4,7 -5,11z"/>
  <path id="2" class="fil2" d="M1574 -1712l9 -2c0,4 1,6 4,8 2,2 5,3 9,3 4,0 7,-1 9,-2 2,-2 3,-4 3,-6 0,-2 -1,-4 -3,-5 -1,-1 -4,-2 -9,-3 -6,-1 -11,-3 -13,-4 -3,-1 -4,-3 -6,-5 -1,-2 -2,-4 -2,-7 0,-2 1,-4 2,-6 1,-2 2,-4 4,-5 2,-1 3,-2 6,-3 2,0 5,-1 7,-1 4,0 8,1 11,2 3,1 5,3 7,5 1,2 2,4 3,8l-9 1c0,-3 -1,-5 -3,-6 -2,-2 -5,-3 -8,-3 -4,0 -7,1 -9,2 -1,2 -2,3 -2,5 0,1 0,2 1,3 1,1 2,2 3,3 1,0 4,1 8,2 6,1 11,3 13,4 3,1 4,2 6,4 1,2 2,5 2,8 0,3 -1,6 -3,8 -1,3 -4,5 -7,6 -3,2 -7,2 -11,2 -7,0 -12,-1 -15,-4 -4,-3 -6,-7 -7,-12z"/>
  <polygon id="3" class="fil2" points="1627,-1697 1627,-1768 1636,-1768 1636,-1728 1657,-1749 1668,-1749 1649,-1729 1670,-1697 1660,-1697 1642,-1723 1636,-1717 1636,-1697 "/>
  <path id="4" class="fil2" d="M1696 -1705l2 8c-3,1 -5,1 -7,1 -3,0 -6,-1 -7,-2 -2,-1 -3,-2 -4,-4 -1,-1 -1,-5 -1,-10l0 -30 -7 0 0 -7 7 0 0 -12 9 -6 0 18 8 0 0 7 -8 0 0 31c0,2 0,4 0,4 0,1 1,2 2,2 0,1 1,1 3,1 1,0 2,0 3,-1z"/>
  <path id="5" class="fil2" d="M1702 -1723c0,-9 3,-16 8,-21 4,-4 10,-6 16,-6 7,0 13,3 18,7 4,5 6,11 6,20 0,6 -1,11 -3,15 -2,4 -4,7 -8,9 -4,2 -8,3 -13,3 -7,0 -13,-2 -17,-7 -5,-4 -7,-11 -7,-20zm9 0c0,7 1,12 4,15 3,3 7,5 11,5 5,0 8,-2 11,-5 3,-3 4,-8 4,-15 0,-6 -1,-11 -4,-15 -3,-3 -6,-4 -11,-4 -4,0 -8,1 -11,4 -3,4 -4,9 -4,15z"/>
  <path id="6" class="fil2" d="M1761 -1677l0 -72 8 0 0 7c2,-2 4,-4 6,-6 3,-1 5,-2 9,-2 4,0 8,1 12,4 3,2 5,5 7,9 2,4 3,9 3,14 0,5 -1,10 -3,14 -2,4 -5,8 -8,10 -4,2 -8,3 -12,3 -3,0 -5,0 -8,-2 -2,-1 -4,-2 -5,-4l0 25 -9 0zm8 -45c0,6 1,11 4,14 2,4 6,5 10,5 3,0 7,-2 10,-5 2,-3 4,-8 4,-15 0,-7 -2,-12 -4,-15 -3,-3 -6,-5 -10,-5 -4,0 -7,2 -10,5 -3,4 -4,9 -4,16z"/>
  <g>
   <g>
    <path class="fil4" d="M1602 -1448c-2,0 -3,0 -5,0 -1,-1 -2,-2 -3,-3 -1,-1 -1,-2 -1,-4l5 0c0,1 1,2 1,3 1,0 2,0 3,0 1,0 2,0 3,0 0,-1 1,-2 1,-3 0,0 -1,-1 -1,-1 -1,-1 -1,-1 -2,-1 0,-1 -1,-1 -2,-1 -2,-1 -3,-1 -4,-2 -1,0 -2,-1 -3,-2 -1,-1 -1,-2 -1,-3 0,-2 0,-3 1,-4 1,-1 2,-2 3,-3 1,0 3,0 5,0 2,0 4,0 6,1 1,2 2,3 2,5l-5 0c0,0 0,-1 -1,-2 -1,0 -2,0 -3,0 -1,0 -1,0 -2,0 -1,1 -1,2 -1,2 0,1 0,2 1,2 0,0 1,1 1,1 1,0 2,1 3,1 2,0 3,1 4,1 1,1 2,2 3,2 0,1 1,3 1,4 0,1 -1,3 -1,4 -1,1 -2,2 -3,2 -2,1 -3,1 -5,1z"/>
    <path id="1" class="fil4" d="M1620 -1464c0,-1 1,-2 2,-3 1,0 3,0 4,0 2,0 3,0 4,1 2,1 3,2 4,3 0,2 1,3 1,5 0,2 -1,4 -1,6 -1,1 -2,2 -4,3 -1,1 -2,1 -4,1 -1,0 -3,0 -4,0 -1,-1 -2,-2 -2,-3l0 12 -5 0 0 -28 5 0 0 3zm10 6c0,-1 0,-2 -1,-3 0,0 -1,-1 -2,-1 -1,-1 -1,-1 -2,-1 -1,0 -2,0 -3,1 -1,0 -1,1 -2,2 0,0 0,1 0,3 0,1 0,2 0,3 1,0 1,1 2,2 1,0 2,0 3,0 1,0 1,0 2,0 1,-1 2,-2 2,-2 1,-1 1,-2 1,-4z"/>
    <path id="2" class="fil4" d="M1647 -1448c-2,0 -4,0 -5,-1 -2,-1 -3,-2 -4,-3 0,-2 -1,-4 -1,-5 0,-2 1,-4 1,-6 1,-1 3,-2 4,-3 2,-1 3,-1 5,-1 2,0 4,0 5,1 2,1 3,2 4,3 1,2 1,4 1,6 0,1 0,3 -1,5 -1,1 -2,2 -4,3 -2,1 -3,1 -5,1zm0 -4c1,0 2,0 2,0 1,-1 2,-1 2,-2 1,-1 1,-2 1,-3 0,-2 -1,-4 -1,-5 -1,-1 -3,-1 -4,-1 -1,0 -3,0 -4,1 0,1 -1,3 -1,5 0,1 1,3 1,4 1,1 3,1 4,1z"/>
    <path id="3" class="fil4" d="M1663 -1469c-1,0 -2,-1 -2,-1 -1,-1 -1,-1 -1,-2 0,-1 0,-2 1,-2 0,-1 1,-1 2,-1 1,0 2,0 2,1 1,0 1,1 1,2 0,1 0,1 -1,2 0,0 -1,1 -2,1zm2 2l0 19 -4 0 0 -19 4 0z"/>
    <polygon id="4" class="fil4" points="1675,-1474 1675,-1448 1670,-1448 1670,-1474 "/>
    <path id="5" class="fil4" d="M1698 -1458c0,1 0,1 0,2l-14 0c0,1 0,2 1,3 1,1 2,1 3,1 2,0 3,0 4,-2l5 0c0,2 -1,3 -3,5 -1,1 -3,1 -6,1 -2,0 -3,0 -5,-1 -1,-1 -2,-2 -3,-3 -1,-2 -1,-4 -1,-5 0,-2 0,-4 1,-6 1,-1 2,-2 3,-3 2,-1 3,-1 5,-1 2,0 4,0 5,1 2,1 3,2 4,3 0,2 1,3 1,5zm-5 -1c0,-2 -1,-3 -2,-3 -1,-1 -2,-1 -3,-1 -1,0 -2,0 -3,1 -1,0 -1,1 -1,3l9 0z"/>
    <path id="6" class="fil4" d="M1706 -1464c1,-1 2,-2 3,-3 1,0 2,0 3,0l0 5 -1 0c-2,0 -3,0 -4,1 0,1 -1,2 -1,4l0 9 -5 0 0 -19 5 0 0 3z"/>
    <polygon class="fil5" points="1731,-1472 1731,-1470 1721,-1470 1721,-1461 1729,-1461 1729,-1459 1721,-1459 1721,-1448 1718,-1448 1718,-1472 "/>
    <path id="1" class="fil5" d="M1737 -1470c-1,0 -1,0 -2,-1 0,0 0,-1 0,-1 0,-1 0,-1 0,-2 1,0 1,0 2,0 0,0 1,0 1,0 1,1 1,1 1,2 0,0 0,1 -1,1 0,1 -1,1 -1,1zm1 3l0 19 -3 0 0 -19 3 0z"/>
    <polygon id="2" class="fil5" points="1751,-1451 1757,-1467 1760,-1467 1752,-1448 1749,-1448 1741,-1467 1745,-1467 "/>
    <path id="3" class="fil5" d="M1780 -1458c0,0 0,1 0,2l-15 0c0,2 1,3 2,4 1,1 3,2 4,2 2,0 3,-1 4,-1 1,-1 1,-2 2,-3l3 0c0,2 -1,4 -3,5 -1,1 -3,1 -6,1 -1,0 -3,0 -5,-1 -1,-1 -2,-2 -3,-3 -1,-2 -1,-4 -1,-5 0,-2 0,-4 1,-6 1,-1 2,-2 3,-3 2,-1 3,-1 5,-1 2,0 4,0 5,1 2,1 3,2 3,3 1,2 1,3 1,5zm-3 -1c0,-1 0,-2 -1,-3 0,-1 -1,-1 -2,-2 -1,0 -2,-1 -3,-1 -1,0 -3,1 -4,2 -1,1 -2,2 -2,4l12 0z"/>
   </g>
   <g>
    <circle class="fil6" cx="1823" cy="-1460" r="13"/>
    <circle class="fil7" cx="1810" cy="-1460" r="13"/>
   </g>
  </g>
  <path class="fil6" d="M-3721 -659c0,2 -2,4 -5,4l-3 0 0 -9 3 0 0 -4 -3 0 0 -3c0,-1 0,-2 1,-2l3 0 0 -3c-1,-1 -2,-1 -3,-1 -3,0 -6,2 -6,6l0 3 -3 0 0 4 3 0 0 9 -9 0c-2,0 -4,-2 -4,-4l0 -17c0,-3 2,-5 4,-5l17 0c3,0 5,2 5,5l0 17z"/>
  <path class="fil6" d="M-3707 -681l14 0c3,0 6,3 6,6l0 14c0,4 -3,6 -6,6l-14 0c-3,0 -6,-2 -6,-6l0 -14c0,-3 3,-6 6,-6zm3 5c-2,0 -5,2 -5,5l0 7c0,2 3,4 5,4l8 0c3,0 5,-2 5,-4l0 -7c0,-3 -2,-5 -5,-5l-8 0zm8 18l-8 0c-3,0 -6,-3 -6,-6l0 -7c0,-4 3,-6 6,-6l8 0c3,0 6,2 6,6l0 7c0,3 -3,6 -6,6zm-4 -14c-2,0 -4,2 -4,4 0,3 2,4 4,4 2,0 4,-1 4,-4 0,-2 -2,-4 -4,-4zm0 10c-3,0 -5,-3 -5,-6 0,-3 2,-5 5,-5 3,0 6,2 6,5 0,3 -3,6 -6,6zm7 -11c0,1 -1,1 -1,1 -1,0 -2,0 -2,-1 0,-1 1,-1 2,-1 0,0 1,0 1,1z"/>
  <g>
   <g>
    <path class="fil4" d="M-3737 -724c-1,0 -2,0 -3,0 -1,-1 -2,-1 -2,-2 -1,-1 -1,-2 -1,-3l3 0c0,1 1,2 1,2 1,0 1,1 2,1 1,0 1,-1 2,-1 0,0 1,-1 1,-2 0,0 -1,0 -1,-1 0,0 -1,0 -1,-1 -1,0 -1,0 -2,0 -1,-1 -2,-1 -3,-1 0,-1 -1,-1 -2,-2 0,0 0,-1 0,-2 0,-1 0,-2 0,-3 1,-1 2,-1 3,-2 1,0 2,0 3,0 2,0 3,0 4,1 1,1 2,2 2,4l-4 0c0,-1 0,-1 -1,-2 0,0 -1,0 -1,0 -1,0 -2,0 -2,0 0,0 -1,1 -1,2 0,0 0,0 1,1 0,0 0,0 1,1 0,0 1,0 2,0 1,1 2,1 3,1 0,0 1,1 1,2 1,0 1,1 1,2 0,1 0,2 -1,3 0,1 -1,1 -2,2 -1,0 -2,0 -3,0z"/>
    <path id="1" class="fil4" d="M-3724 -735c0,-1 1,-2 1,-2 1,0 2,-1 3,-1 1,0 2,1 3,1 1,1 2,2 3,3 0,1 0,2 0,3 0,2 0,3 0,4 -1,1 -2,2 -3,3 -1,0 -2,0 -3,0 -1,0 -2,0 -2,0 -1,-1 -2,-1 -2,-2l0 9 -4 0 0 -20 4 0 0 2zm7 4c0,0 0,-1 -1,-2 0,0 0,-1 -1,-1 -1,0 -1,-1 -2,-1 0,0 -1,1 -2,1 0,0 -1,1 -1,1 0,1 0,2 0,2 0,1 0,2 0,3 0,0 1,1 1,1 1,0 2,0 2,0 1,0 1,0 2,0 1,0 1,-1 1,-1 1,-1 1,-2 1,-3z"/>
    <path id="2" class="fil4" d="M-3705 -724c-1,0 -2,0 -4,0 -1,-1 -1,-2 -2,-3 -1,-1 -1,-2 -1,-4 0,-1 0,-2 1,-3 1,-1 1,-2 3,-3 1,0 2,-1 3,-1 1,0 3,1 4,1 1,1 2,2 2,3 1,1 1,2 1,3 0,2 0,3 -1,4 0,1 -1,2 -2,3 -1,0 -3,0 -4,0zm0 -3c1,0 1,0 2,0 0,0 1,-1 1,-1 0,-1 1,-2 1,-3 0,-1 -1,-2 -1,-3 -1,0 -2,-1 -3,-1 -1,0 -2,1 -2,1 -1,1 -1,2 -1,3 0,2 0,3 1,3 0,1 1,1 2,1z"/>
    <path id="3" class="fil4" d="M-3693 -739c-1,0 -2,0 -2,-1 0,0 -1,-1 -1,-1 0,-1 1,-1 1,-2 0,0 1,0 2,0 0,0 1,0 1,0 0,1 1,1 1,2 0,0 -1,1 -1,1 0,1 -1,1 -1,1zm1 2l0 13 -3 0 0 -13 3 0z"/>
    <polygon id="4" class="fil4" points="-3685,-742 -3685,-724 -3688,-724 -3688,-742 "/>
    <path id="5" class="fil4" d="M-3669 -731c0,1 0,1 0,1l-10 0c0,1 1,2 1,3 1,0 2,1 2,1 2,0 3,-1 3,-2l4 0c0,1 -1,2 -2,3 -1,1 -3,1 -5,1 -1,0 -2,0 -3,0 -1,-1 -2,-2 -3,-3 0,-1 0,-2 0,-4 0,-1 0,-2 0,-3 1,-1 2,-2 3,-3 1,0 2,-1 3,-1 2,0 3,1 4,1 1,1 2,2 2,3 1,1 1,2 1,3zm-3 -1c0,-1 -1,-2 -1,-2 -1,-1 -2,-1 -3,-1 0,0 -1,0 -2,1 0,0 -1,1 -1,2l7 0z"/>
    <path id="6" class="fil4" d="M-3663 -735c1,-1 1,-2 2,-2 1,0 2,-1 2,-1l0 4 0 0c-2,0 -2,0 -3,1 0,0 -1,1 -1,2l0 7 -3 0 0 -13 3 0 0 2z"/>
    <polygon class="fil5" points="-3645,-741 -3645,-739 -3652,-739 -3652,-733 -3646,-733 -3646,-732 -3652,-732 -3652,-724 -3655,-724 -3655,-741 "/>
    <path id="1" class="fil5" d="M-3641 -740c0,0 -1,0 -1,0 0,0 -1,-1 -1,-1 0,-1 1,-1 1,-1 0,-1 1,-1 1,-1 0,0 1,0 1,1 0,0 0,0 0,1 0,0 0,1 0,1 0,0 -1,0 -1,0zm1 3l0 13 -2 0 0 -13 2 0z"/>
    <polygon id="2" class="fil5" points="-3631,-726 -3627,-737 -3624,-737 -3630,-724 -3632,-724 -3638,-737 -3635,-737 "/>
    <path id="3" class="fil5" d="M-3610 -731c0,0 0,1 0,1l-11 0c0,2 1,3 2,3 0,1 1,1 3,1 1,0 1,0 2,0 1,-1 1,-1 1,-2l3 0c0,1 -1,2 -2,3 -1,1 -3,1 -4,1 -2,0 -3,0 -4,0 -1,-1 -2,-2 -2,-3 -1,-1 -1,-2 -1,-4 0,-1 0,-2 1,-3 0,-1 1,-2 2,-3 1,0 2,-1 4,-1 1,0 2,1 3,1 1,1 2,2 2,3 1,1 1,2 1,3zm-2 -1c0,0 0,-1 -1,-2 0,0 -1,-1 -1,-1 -1,-1 -2,-1 -2,-1 -2,0 -3,1 -3,1 -1,1 -2,2 -2,3l9 0z"/>
   </g>
   <g>
    <circle class="fil6" cx="-3579" cy="-733" r="9"/>
    <circle class="fil7" cx="-3589" cy="-733" r="9"/>
   </g>
  </g>
  <polygon class="fil6" points="-3651,-670 -3655,-670 -3655,-655 -3661,-655 -3661,-665 -3667,-665 -3667,-655 -3674,-655 -3674,-670 -3678,-670 -3664,-680 "/>
  <path class="fil6" d="M-3619 -655l2 -2 -6 -7 0 0c1,-2 2,-4 2,-6 0,-6 -5,-11 -11,-11 -6,0 -11,5 -11,11 0,6 5,11 11,11 2,0 5,-1 6,-3l1 0 6 7zm-13 -23c4,0 8,4 8,8 0,4 -4,8 -8,8 -4,0 -8,-4 -8,-8 0,-4 4,-8 8,-8z"/>
  <path class="fil6" d="M-3596 -680c6,0 11,5 11,11 0,7 -5,12 -11,12 -7,0 -12,-5 -12,-12 0,-6 5,-11 12,-11zm-1 15c0,-1 0,-1 0,-1 0,-1 0,-1 0,-1 0,-1 0,-1 1,-1 0,-1 0,-1 1,-2 0,0 1,0 1,-1 0,0 0,0 0,-1 0,0 0,-1 -1,-1 0,-1 -1,-1 -1,-1 -1,0 -2,0 -2,1 0,0 -1,1 -1,2l-1 0c0,-2 0,-3 1,-3 1,-1 1,-1 3,-1 1,0 2,0 2,1 1,1 2,1 2,2 0,1 -1,1 -1,2 0,0 -1,1 -1,1 -1,1 -1,1 -1,1 0,1 -1,1 -1,1 0,0 0,1 0,2l-1 0zm0 3l0 -2 1 0 0 2 -1 0z"/>
  <path class="fil6" d="M-3565 -680c7,0 12,5 12,11 0,7 -5,12 -12,12 -6,0 -11,-5 -11,-12 0,-6 5,-11 11,-11zm0 2c3,0 5,2 5,5 0,2 -2,4 -5,4 -2,0 -4,-2 -4,-4 0,-3 2,-5 4,-5zm8 16c-2,2 -5,3 -8,3 -3,0 -5,-1 -7,-3 1,-3 4,-5 7,-5 4,0 7,2 8,5z"/>
  <path class="fil6" d="M-3538 -677c0,0 -1,1 -1,1l0 1c0,0 0,0 0,0l2 2c0,0 0,0 0,1l-1 0 -1 1 -2 0 0 4 3 1c0,0 0,1 1,1 0,1 0,1 -1,1 0,1 -1,2 -1,3 0,0 2,2 2,2l1 0c0,0 0,0 0,0l2 -1c1,-1 0,-1 2,0l0 0c0,0 0,0 0,1 0,0 1,0 1,1l0 1 4 0 0 -3c1,0 2,-1 2,-1 0,0 3,2 3,2 1,0 2,-2 3,-2 0,-1 -2,-3 -2,-3 0,-1 0,-2 0,-2 1,0 1,0 1,0l3 -1 0 -4 -2 0c0,0 -1,0 -1,0 -1,-1 -1,-1 -1,-2 0,0 0,0 0,-1 1,0 2,-2 2,-2 -1,-1 -2,-2 -3,-3 0,0 -1,1 -1,1 -2,2 -1,2 -4,1l0 -4 -4 0 -1 4c0,0 -1,0 -1,0 -1,0 -1,0 -1,0 -1,0 -2,-2 -3,-2l-1 2zm10 5l0 1 -2 0 0 -1c-4,1 -3,7 1,7 2,0 3,-2 3,-3 1,-3 -2,-4 -2,-4zm-2 0l0 1 2 0 0 -1c-1,0 -2,0 -2,0zm0 -4l2 1 0 0 0 1 1 0 1 0 0 1c2,1 3,3 2,5 0,3 -3,5 -5,5 -6,0 -8,-9 -2,-11 1,0 1,0 1,0l0 -2 -1 0c0,1 -1,1 -1,1 -2,1 -2,0 -3,-1 -1,0 -1,0 -1,0l-1 0 1 1c1,2 1,2 0,3l0 2 -3 1 0 0 0 0 2 1 1 1c0,0 0,1 0,1 1,2 1,2 0,3 0,1 0,1 -1,1 0,0 1,1 1,1l1 -1c2,-1 1,-1 3,0l0 0 1 0c1,0 1,1 1,2 0,1 1,1 1,1l0 0 0 0 1 -2 0 -1c1,0 2,-1 3,-1l1 0 1 1c0,0 0,0 1,1 0,0 0,-1 0,-1 0,0 -1,-1 -1,-2l0 -1 0 0c0,-1 1,-2 1,-2l0 -1 0 0c0,0 1,0 1,0l0 0 2 -1 0 0 0 0 0 0c-1,0 -2,0 -3,-1l0 0 0 0c-1,-1 -1,-1 -1,-2 -1,-1 0,-2 1,-3 0,0 0,-1 0,-1 0,0 0,0 0,0 0,0 0,0 0,0 -3,2 -2,2 -5,0l-1 0 -1 -3 0 0 -1 3 0 0z"/>
  <path class="fil6" d="M-3496 -681c7,0 12,6 12,12 0,6 -5,11 -12,11 -6,0 -11,-5 -11,-11 0,-6 5,-12 11,-12zm5 12l-7 5 0 -11 7 6z"/>
  <path class="fil8" d="M-3461 -676c1,-3 3,-4 5,-4 3,0 6,2 6,5 0,5 -6,10 -11,15 -6,-5 -11,-10 -11,-15 0,-3 2,-5 5,-5 3,0 4,1 6,4z"/>
  <path class="fil6" d="M-3424 -661c2,-1 4,-3 5,-5 0,-1 0,-2 0,-3l0 -2c0,-1 0,-1 -1,-1 -2,0 -7,0 -8,0 -1,0 -1,1 -1,2 0,1 0,2 0,2 1,1 5,0 6,0 -1,1 -1,2 -2,2 0,1 -1,2 -1,2 -2,0 -2,1 -4,1 -1,0 -2,-1 -3,-1 0,-1 -1,-1 -1,-1 -1,-1 -1,-1 -1,-2 0,0 -1,0 -1,-1 0,-1 0,-1 0,-2 0,-2 0,-2 1,-3l1 -1c1,-2 3,-2 4,-2 2,0 3,0 4,1 1,1 2,0 2,-1 0,0 1,0 1,0 1,-1 1,-1 0,-2 -1,-1 -2,-2 -3,-2 -1,0 -2,-1 -3,-1l-1 0 0 0c-1,0 -2,0 -2,1 -2,0 -4,1 -6,3 0,0 0,1 -1,2 0,0 -1,1 -1,2 0,0 0,2 0,2l0 2c0,1 0,2 0,3 0,0 1,1 1,2 0,0 1,1 2,2 1,1 2,2 4,2 0,0 1,1 1,1 1,0 1,0 2,0l0 0 1 0c1,0 2,0 3,-1 1,0 1,0 2,-1z"/>
  <g style="clip-path:url(#id36)">
   <image x="-3202" y="-1272" width="114" height="114" xlink:href="estrella_Images\estrella_ImgID13.png"/>
  </g>
  <g style="clip-path:url(#id37)">
   <image x="-3368" y="-1274" width="114" height="114" xlink:href="estrella_Images\estrella_ImgID14.png"/>
  </g>
  <g style="clip-path:url(#id38)">
   <image x="-3534" y="-1272" width="114" height="114" xlink:href="estrella_Images\estrella_ImgID15.png"/>
  </g>
  <g style="clip-path:url(#id39)">
   <image x="-3699" y="-1276" width="114" height="114" xlink:href="estrella_Images\estrella_ImgID16.png"/>
  </g>
  <g>
  </g>
  <g style="clip-path:url(#id40)">
   <g>
   </g>
   <g style="clip-path:url(#id41)">
    <image x="-3750" y="-1109" width="216" height="170" xlink:href="estrella_Images\estrella_ImgID17.png"/>
   </g>
   <g style="clip-path:url(#id42)">
   </g>
  </g>
  <polygon class="fil1" points="-3699,-1081 -3585,-1081 -3585,-967 -3699,-967 "/>
  <g>
  </g>
  <g style="clip-path:url(#id43)">
   <g>
   </g>
   <g style="clip-path:url(#id44)">
    <image x="-3580" y="-1082" width="171" height="118" xlink:href="estrella_Images\estrella_ImgID18.png"/>
   </g>
   <g style="clip-path:url(#id45)">
   </g>
  </g>
  <polygon class="fil1" points="-3534,-1081 -3420,-1081 -3420,-967 -3534,-967 "/>
  <g>
  </g>
  <g style="clip-path:url(#id46)">
   <g>
   </g>
   <g style="clip-path:url(#id47)">
    <image x="-3400" y="-1097" width="177" height="133" xlink:href="estrella_Images\estrella_ImgID19.png"/>
   </g>
   <g style="clip-path:url(#id48)">
   </g>
  </g>
  <polygon class="fil1" points="-3368,-1081 -3254,-1081 -3254,-967 -3368,-967 "/>
  <g>
  </g>
  <g style="clip-path:url(#id49)">
   <g>
   </g>
   <g style="clip-path:url(#id50)">
    <image x="-3231" y="-1095" width="256" height="144" xlink:href="estrella_Images\estrella_ImgID20.png"/>
   </g>
   <g style="clip-path:url(#id51)">
   </g>
  </g>
  <polygon class="fil1" points="-3203,-1081 -3089,-1081 -3089,-967 -3203,-967 "/>
  <g>
  </g>
  <g style="clip-path:url(#id52)">
   <g>
   </g>
   <g style="clip-path:url(#id53)">
    <image x="-3075" y="-1086" width="188" height="125" xlink:href="estrella_Images\estrella_ImgID21.png"/>
   </g>
   <g style="clip-path:url(#id54)">
   </g>
  </g>
  <polygon class="fil1" points="-3038,-1081 -2924,-1081 -2924,-967 -3038,-967 "/>
  <g>
  </g>
  <g style="clip-path:url(#id55)">
   <g>
   </g>
   <g style="clip-path:url(#id56)">
    <image x="-3042" y="-1276" width="122" height="122" xlink:href="estrella_Images\estrella_ImgID22.png"/>
   </g>
   <g style="clip-path:url(#id57)">
   </g>
  </g>
  <polygon class="fil1" points="-3038,-1272 -2924,-1272 -2924,-1158 -3038,-1158 "/>
  <g>
  </g>
  <g style="clip-path:url(#id58)">
   <g>
   </g>
   <g style="clip-path:url(#id59)">
    <image x="-3752" y="-917" width="220" height="124" xlink:href="estrella_Images\estrella_ImgID23.png"/>
   </g>
   <g style="clip-path:url(#id60)">
   </g>
  </g>
  <polygon class="fil1" points="-3699,-912 -3585,-912 -3585,-798 -3699,-798 "/>
  <g>
  </g>
  <g style="clip-path:url(#id61)">
   <g>
   </g>
   <g style="clip-path:url(#id62)">
    <image x="-3534" y="-912" width="114" height="114" xlink:href="estrella_Images\estrella_ImgID24.png"/>
   </g>
   <g style="clip-path:url(#id63)">
   </g>
  </g>
  <polygon class="fil1" points="-3534,-912 -3420,-912 -3420,-798 -3534,-798 "/>
  <g>
  </g>
  <g style="clip-path:url(#id64)">
   <g>
   </g>
   <g style="clip-path:url(#id65)">
    <image x="-3430" y="-920" width="237" height="130" xlink:href="estrella_Images\estrella_ImgID25.png"/>
   </g>
   <g style="clip-path:url(#id66)">
   </g>
  </g>
  <polygon class="fil1" points="-3368,-912 -3254,-912 -3254,-798 -3368,-798 "/>
  <g>
  </g>
  <g style="clip-path:url(#id67)">
   <g>
   </g>
   <g style="clip-path:url(#id68)">
    <image x="-3203" y="-912" width="114" height="114" xlink:href="estrella_Images\estrella_ImgID26.png"/>
   </g>
   <g style="clip-path:url(#id69)">
   </g>
  </g>
  <polygon class="fil1" points="-3203,-912 -3089,-912 -3089,-798 -3203,-798 "/>
  <g>
  </g>
  <g style="clip-path:url(#id70)">
   <g>
   </g>
   <g style="clip-path:url(#id71)">
    <image x="-1778" y="-1460" width="222" height="128" xlink:href="estrella_Images\estrella_ImgID27.png"/>
   </g>
   <g style="clip-path:url(#id72)">
   </g>
  </g>
  <polygon class="fil1" points="-1724,-1453 -1611,-1453 -1611,-1340 -1724,-1340 "/>
  <g>
  </g>
  <g style="clip-path:url(#id73)">
   <g>
   </g>
   <g style="clip-path:url(#id74)">
    <image x="-3880" y="-1460" width="122" height="122" xlink:href="estrella_Images\estrella_ImgID28.png"/>
   </g>
   <g style="clip-path:url(#id75)">
   </g>
  </g>
  <polygon class="fil1" points="-3876,-1456 -3763,-1456 -3763,-1343 -3876,-1343 "/>
  <g>
  </g>
  <g style="clip-path:url(#id76)">
   <g>
   </g>
   <g style="clip-path:url(#id77)">
    <image x="-1604" y="-1458" width="155" height="124" xlink:href="estrella_Images\estrella_ImgID29.png"/>
   </g>
   <g style="clip-path:url(#id78)">
   </g>
  </g>
  <polygon class="fil1" points="-1583,-1453 -1470,-1453 -1470,-1340 -1583,-1340 "/>
  <g>
  </g>
  <g style="clip-path:url(#id79)">
   <g>
   </g>
   <g style="clip-path:url(#id80)">
    <image x="-3797" y="-630" width="215.531" height="71.44" xlink:href="estrella_Images\estrella_ImgID30.png"/>
   </g>
   <g style="clip-path:url(#id81)">
   </g>
  </g>
  <path class="fil1" d="M-3618 -622c15,0 27,12 27,27 0,15 -12,28 -27,28 -15,0 -27,-13 -27,-28 0,-15 12,-27 27,-27z"/>
  <polygon class="fil6" points="-3396,-659 -3396,-668 -3405,-668 -3405,-672 -3396,-672 -3396,-681 -3392,-681 -3392,-672 -3383,-672 -3383,-668 -3392,-668 -3392,-659 "/>
  <path class="fil7" d="M-3363 -681c1,0 3,1 3,3 0,1 -2,2 -3,2 -1,0 -2,-1 -2,-2 0,-2 1,-3 2,-3z"/>
  <path class="fil7" d="M-3363 -672c1,0 3,1 3,2 0,2 -2,3 -3,3 -1,0 -2,-1 -2,-3 0,-1 1,-2 2,-2z"/>
  <path class="fil7" d="M-3363 -664c1,0 3,1 3,3 0,1 -2,2 -3,2 -1,0 -2,-1 -2,-2 0,-2 1,-3 2,-3z"/>
  <path class="fil6" d="M-3342 -671l5 0c3,0 4,2 4,4l0 8 -14 0 0 -8c0,-2 2,-4 5,-4z"/>
  <path class="fil6" d="M-3340 -681c3,0 4,2 4,4 0,2 -1,4 -4,4 -2,0 -4,-2 -4,-4 0,-2 2,-4 4,-4z"/>
  <polygon class="fil6" points="-3328,-669 -3328,-672 -3331,-672 -3331,-674 -3328,-674 -3328,-678 -3326,-678 -3326,-674 -3322,-674 -3322,-672 -3326,-672 -3326,-669 "/>
  <path class="fil6" d="M-3310 -654l44 0 -1 -14 -13 -16 -16 0 -14 16 0 14zm13 -27l17 0 10 13 -7 0 -6 6 -11 0 -5 -6 -7 0 9 -13z"/>
  <g>
   <g style="clip-path:url(#id82)">
    <image x="-3245" y="-687" width="37.9087" height="37.9087" xlink:href="estrella_Images\estrella_ImgID31.png"/>
   </g>
  </g>
  <path class="fil3" d="M-3227 -686c9,0 16,7 16,16 0,9 -7,16 -16,16 -9,0 -17,-7 -17,-16 0,-9 8,-16 17,-16z"/>
  <polygon class="fil9" points="-3235,-664 -3230,-670 -3235,-676 -3233,-678 -3227,-672 -3221,-678 -3219,-676 -3225,-670 -3219,-664 -3221,-662 -3227,-668 -3233,-662 "/>
  <path class="fil7" d="M-3663 -550l319 0c1,0 3,1 3,3l0 0c0,1 -2,3 -3,3l-319 0c-2,0 -3,-2 -3,-3l0 0c0,-2 1,-3 3,-3z"/>
  <path class="fil6" d="M-3578 -544l0 -6 -85 0c-2,0 -3,1 -3,3 0,1 1,3 3,3l85 0z"/>
  <path class="fil9" d="M-3578 -551c3,0 4,2 4,4 0,2 -1,4 -4,4 -2,0 -3,-2 -3,-4 0,-2 1,-4 3,-4z"/>
  <path class="fil7" d="M-3666 -534c0,-2 0,-3 1,-4 0,-1 1,-2 3,-2 1,0 2,1 3,2 0,1 0,2 0,4 0,2 0,3 0,4 -1,1 -2,2 -3,2 -2,0 -3,-1 -3,-2 -1,-1 -1,-2 -1,-4zm6 0c0,-1 0,-2 0,-2 0,-1 0,-1 -1,-2 0,0 -1,0 -1,0 -1,0 -2,0 -2,0 0,1 0,1 -1,2 0,0 0,1 0,2 0,1 0,2 0,2 1,1 1,1 1,2 0,0 1,0 2,0 0,0 1,0 1,0 1,-1 1,-1 1,-2 0,0 0,-1 0,-2zm4 6c0,0 0,0 -1,-1 0,0 0,0 0,0 0,-1 0,-1 0,-1 1,0 1,0 1,0 0,0 1,0 1,0 0,0 0,0 0,1 0,0 0,0 0,0 0,1 -1,1 -1,1zm0 -7c0,0 0,0 -1,0 0,0 0,-1 0,-1 0,0 0,0 0,0 1,-1 1,-1 1,-1 0,0 1,0 1,1 0,0 0,0 0,0 0,0 0,1 0,1 0,0 -1,0 -1,0zm3 -2c0,-1 0,-1 1,-2 0,0 1,-1 2,-1 1,0 1,1 2,1 0,0 1,0 1,1 0,0 0,1 0,1 0,1 0,1 0,2 0,0 -1,1 -1,1l0 0c0,0 1,0 1,1 0,0 1,1 1,2 0,0 0,1 -1,1 0,1 0,1 -1,1 0,0 -1,1 -2,1 -1,0 -2,-1 -2,-1 -1,-1 -2,-2 -2,-3l2 0c0,1 0,1 0,2 1,0 1,0 2,0 1,0 1,0 2,0 0,0 0,-1 0,-2 0,0 0,-1 0,-1 -1,0 -2,-1 -3,-1l0 0 0 -1 0 0c1,0 2,0 2,0 1,-1 1,-1 1,-2 0,0 0,-1 0,-1 -1,0 -1,0 -2,0 -1,0 -1,0 -1,0 -1,0 -1,1 -1,1l-1 0zm8 -1l0 -1 3 0 0 11 -1 0 0 -10 -2 0z"/>
  <path class="fil7" d="M-3370 -537c0,-1 0,-1 1,-2 0,0 1,-1 2,-1 1,0 1,1 2,1 0,0 1,0 1,1 0,0 0,1 0,1 0,1 0,1 0,2 0,0 -1,1 -1,1l0 0c0,0 1,0 1,1 0,0 1,1 1,2 0,0 0,1 -1,1 0,1 0,1 -1,1 0,0 -1,1 -2,1 -1,0 -2,-1 -2,-1 -1,-1 -2,-2 -2,-3l2 0c0,1 0,1 0,2 1,0 1,0 2,0 1,0 1,0 2,0 0,0 0,-1 0,-2 0,0 0,-1 0,-1 -1,0 -2,-1 -3,-1l0 0 0 -1 0 0c1,0 2,0 2,0 1,-1 1,-1 1,-2 0,0 0,-1 0,-1 -1,0 -1,0 -2,0 -1,0 -1,0 -1,0 -1,0 -1,1 -1,1l-1 0zm9 9c0,0 0,0 0,-1 -1,0 -1,0 -1,0 0,-1 0,-1 1,-1 0,0 0,0 0,0 0,0 1,0 1,0 0,0 0,0 0,1 0,0 0,0 0,0 0,1 -1,1 -1,1zm0 -7c0,0 0,0 0,0 -1,0 -1,-1 -1,-1 0,0 0,0 1,0 0,-1 0,-1 0,-1 0,0 1,0 1,1 0,0 0,0 0,0 0,0 0,1 0,1 0,0 -1,0 -1,0zm2 4l0 -1 6 -7 1 0 0 7 2 0 0 1 -2 0 0 3 -1 0 0 -3 -6 0zm6 -7l-4 6 4 0 0 -6zm4 4c0,-2 1,-3 1,-4 1,-1 2,-2 3,-2 1,0 2,1 3,2 1,1 1,2 1,4 0,2 0,3 -1,4 -1,1 -2,2 -3,2 -1,0 -2,-1 -3,-2 0,-1 -1,-2 -1,-4zm7 0c0,-1 -1,-2 -1,-2 0,-1 0,-1 0,-2 -1,0 -1,0 -2,0 -1,0 -1,0 -1,0 -1,1 -1,1 -1,2 0,0 0,1 0,2 0,1 0,2 0,2 0,1 0,1 1,2 0,0 0,0 1,0 1,0 1,0 2,0 0,-1 0,-1 0,-2 0,0 1,-1 1,-2z"/>
  <g>
   <g>
    <path class="fil9" d="M-3189 -671c0,2 0,3 0,5 0,0 0,0 0,0 0,1 1,1 2,1 0,0 1,0 1,0 1,0 0,0 1,0 1,1 2,2 2,3 1,0 1,1 2,1 1,0 1,-1 1,-2l0 -10c0,-1 0,-2 -1,-2 -1,0 -1,0 -2,1 0,1 -1,2 -2,2 0,1 0,1 -1,1 0,0 -1,0 -1,0 -1,0 -1,0 -2,0 0,0 0,0 0,0z"/>
    <path class="fil9" d="M-3171 -672c0,0 0,-1 -1,-2 0,0 -1,-1 -2,-1 -2,-3 -3,-1 -2,0 0,0 0,0 1,0 2,2 4,4 4,7 0,2 -2,5 -4,6 0,0 -1,1 -1,1 -1,0 -1,1 0,1 0,0 2,0 2,-1 1,0 1,-1 2,-1 0,-1 1,-2 1,-3 1,-2 1,-5 0,-7z"/>
    <path class="fil9" d="M-3177 -674c-1,1 -1,1 0,2 1,0 1,0 1,1 1,0 2,2 2,3 -1,2 -1,3 -2,3 0,1 -1,1 -1,1 -1,1 0,2 1,1 1,-1 3,-3 3,-6 0,-1 -1,-2 -1,-3 -1,-1 -2,-2 -3,-2z"/>
    <path class="fil9" d="M-3178 -671c-1,0 -1,0 -1,1 0,0 1,0 1,0 0,1 1,1 1,2 -1,1 -1,1 -2,1 0,1 1,2 1,2 2,-1 3,-4 1,-5 0,0 -1,-1 -1,-1z"/>
   </g>
   <g>
    <path class="fil7" d="M-3162 -685l0 0c1,0 1,1 1,2l0 30c0,1 0,1 -1,1l0 0c-1,0 -2,0 -2,-1l0 -30c0,-1 1,-2 2,-2z"/>
    <path class="fil6" d="M-3161 -663l-3 0 0 10c0,1 1,1 2,1 1,0 1,0 1,-1l0 -10z"/>
    <polygon class="fil3" points="-3163,-653 -3161,-653 -3161,-653 -3163,-653 "/>
    <polygon class="fil3" points="-3163,-683 -3161,-683 -3161,-683 -3163,-683 "/>
    <polygon class="fil3" points="-3162,-684 -3162,-682 -3162,-682 -3162,-684 "/>
   </g>
  </g>
  <path class="fil6" d="M-3495 -723c7,0 14,7 14,14 0,8 -7,14 -14,14 -8,0 -14,-6 -14,-14 0,-7 6,-14 14,-14zm5 14l-8 7 0 -13 8 6z"/>
  <g>
   <g>
    <polygon class="fil6" points="-3516,-715 -3516,-702 -3523,-709 "/>
    <polygon class="fil6" points="-3523,-715 -3523,-702 -3531,-709 "/>
    <polygon class="fil6" points="-3531,-703 -3533,-703 -3533,-715 -3531,-715 "/>
   </g>
   <g>
    <polygon class="fil6" points="-3475,-715 -3475,-702 -3467,-709 "/>
    <polygon class="fil6" points="-3467,-715 -3467,-702 -3459,-709 "/>
    <polygon class="fil6" points="-3459,-703 -3457,-703 -3457,-715 -3459,-715 "/>
   </g>
  </g>
  <g>
   <g style="clip-path:url(#id83)">
    <image x="-3603" y="-587" width="21.0579" height="21.0591" xlink:href="estrella_Images\estrella_ImgID32.png"/>
   </g>
  </g>
  <circle class="fil3" cx="-3593" cy="-578" r="9"/>
  <path class="fil7" d="M-3593 -585c-1,0 -1,1 -1,1 0,0 0,0 -1,0 0,1 0,1 0,1 -1,0 -1,1 -2,1 0,2 0,3 -1,6 0,1 -1,1 -1,2 0,0 0,1 1,1 0,0 3,0 3,0 1,0 1,0 1,1 0,1 1,1 2,0 0,-1 0,-1 1,-1 1,0 3,1 3,0 1,0 1,-1 0,-2 0,0 0,0 0,-1 -1,0 -1,0 -1,-1 -1,-2 0,-3 -1,-5 0,-1 -1,-1 -2,-2 0,0 0,0 0,0 -1,0 -1,-1 -1,-1z"/>
  <circle class="fil10" cx="-3590" cy="-582" r="1"/>
  <path class="fil7" d="M-3140 -676l0 1c0,0 0,0 0,1 0,0 0,0 0,1 1,1 3,2 5,2 0,0 1,0 1,0l11 11c1,1 1,1 3,1 0,0 0,0 1,0 1,-1 1,-3 0,-4 0,0 -1,-1 -2,-2l-9 -9c-1,-1 -1,0 0,-1 0,-3 -2,-5 -4,-6 -1,0 -2,0 -3,0 0,0 1,1 1,1l2 2c0,0 0,0 0,1 0,0 0,1 0,1 0,0 0,1 -1,1 0,0 -2,1 -2,1 -1,-1 -3,-3 -3,-3 0,0 0,0 0,0 0,0 0,1 0,1z"/>
  <path class="fil11" d="M-5740 -2089l3 2 0 -409 -400 0 -3 3c18,5 318,312 353,347 23,23 44,37 47,57z"/>
  <path class="fil11" d="M-6131 -292c-135,32 -79,226 46,194 46,-13 85,-59 72,-122 -9,-47 -61,-86 -118,-72z"/>
  <g>
   <path class="fil7" d="M-3096 -668c-2,1 -3,3 -4,5 0,2 0,2 1,3 2,1 10,1 13,0 1,0 1,0 1,-2 0,-2 -2,-4 -4,-6 -2,-1 -1,1 -4,1 -1,-1 -2,-1 -3,-1z"/>
   <path class="fil7" d="M-3093 -677c-6,1 -4,10 1,9 2,-1 4,-3 3,-6 0,-2 -2,-4 -4,-3z"/>
   <path class="fil7" d="M-3100 -664c1,-3 2,-3 4,-5 0,0 0,0 0,0 -1,-1 -1,-2 -1,-3 -1,0 -1,0 -2,0 -2,0 -2,-1 -4,1 -2,1 -2,2 -3,4 0,1 0,2 1,2 1,1 4,1 5,1z"/>
   <path class="fil7" d="M-3088 -672c0,0 0,0 0,0 0,0 0,0 0,0 -1,2 -1,2 -1,3 0,0 0,0 1,1 2,1 2,2 3,4 2,0 4,0 5,-1 1,0 1,-1 1,-2 -1,-1 -1,-2 -1,-2 -1,-1 -2,-3 -3,-3 -1,-1 -2,1 -5,0z"/>
   <path class="fil7" d="M-3097 -673c0,-1 0,-2 1,-3 0,-1 1,-1 0,-3 -1,-2 -3,-3 -5,-1 -4,2 -1,10 4,7z"/>
   <path class="fil7" d="M-3088 -673c1,1 2,1 3,0 3,-1 3,-6 1,-7 -4,-2 -6,2 -6,3l1 1c1,1 1,2 1,3z"/>
  </g>
  <g>
   <path class="fil7" d="M-3063 -681c-1,0 -2,1 -2,2 -1,1 0,1 0,3 0,4 0,9 0,14 0,1 0,1 0,2 1,1 2,1 3,1 1,0 2,0 3,0 2,0 3,0 4,0 2,-1 1,-3 1,-5 0,-1 1,-3 0,-3 -2,0 -2,2 -1,2 0,1 0,3 -1,4 0,0 0,0 -1,0 -1,0 -1,0 -2,0 -1,0 -2,0 -3,0 -2,0 -1,-1 -1,-2 0,-3 0,-5 0,-7 0,-3 0,-5 0,-7 0,-2 0,-2 1,-2 2,0 3,0 4,0 3,0 3,0 3,5 0,0 -1,1 0,1 0,0 1,0 1,0 1,0 0,-1 0,-2 0,0 0,-1 0,-1 0,-1 1,-2 0,-3 0,-1 -1,-2 -2,-2 -1,0 -6,0 -7,0z"/>
   <path class="fil7" d="M-3047 -671c-1,0 -9,0 -10,0 -1,0 -2,0 -2,1 0,1 1,1 2,1 1,0 9,0 10,0l-3 3c0,1 -2,1 -2,2 0,1 2,1 2,1 2,-2 4,-4 6,-6 1,-1 0,-1 -1,-3l-5 -4c-1,-1 -2,-1 -2,0 0,1 1,1 1,1l2 3c1,0 2,1 2,1z"/>
  </g>
  <path class="fil3" d="M-4128 -456l120 0 0 61 -120 0 0 -61zm74 28l-4 0 0 15 -7 0 0 -10 -6 0 0 10 -7 0 0 -15 -3 0 13 -10 14 10z"/>
  <polygon class="fil6" points="-3025,-679 -3023,-673 -3016,-673 -3022,-669 -3020,-662 -3025,-666 -3031,-662 -3029,-669 -3034,-673 -3027,-673 "/>
  <g>
  </g>
  <g style="clip-path:url(#id84)">
   <g>
   </g>
   <g style="clip-path:url(#id85)">
    <image x="-3794" y="-454" width="343" height="229" xlink:href="estrella_Images\estrella_ImgID33.png"/>
   </g>
   <g style="clip-path:url(#id86)">
   </g>
  </g>
  <polygon class="fil1" points="-3792,-440 -3452,-440 -3452,-240 -3792,-240 "/>
  <g>
  </g>
  <g style="clip-path:url(#id87)">
   <g>
   </g>
   <g style="clip-path:url(#id88)">
    <image x="-3415" y="-460" width="348" height="240" xlink:href="estrella_Images\estrella_ImgID34.png"/>
   </g>
   <g style="clip-path:url(#id89)">
   </g>
  </g>
  <polygon class="fil1" points="-3411,-440 -3071,-440 -3071,-240 -3411,-240 "/>
  <g>
  </g>
  <g style="clip-path:url(#id90)">
   <g>
   </g>
   <g style="clip-path:url(#id91)">
    <image x="-3035" y="-478" width="351" height="277" xlink:href="estrella_Images\estrella_ImgID35.png"/>
   </g>
   <g style="clip-path:url(#id92)">
   </g>
  </g>
  <polygon class="fil1" points="-3030,-440 -2690,-440 -2690,-240 -3030,-240 "/>
  <g>
  </g>
  <g style="clip-path:url(#id93)">
   <g>
   </g>
   <g style="clip-path:url(#id94)">
    <image x="-2658" y="-448" width="359" height="215" xlink:href="estrella_Images\estrella_ImgID36.png"/>
   </g>
   <g style="clip-path:url(#id95)">
   </g>
  </g>
  <polygon class="fil1" points="-2649,-440 -2309,-440 -2309,-240 -2649,-240 "/>
  <g>
  </g>
  <g style="clip-path:url(#id96)">
   <g>
   </g>
   <g style="clip-path:url(#id97)">
    <image x="-2285" y="-454" width="376" height="228" xlink:href="estrella_Images\estrella_ImgID37.png"/>
   </g>
   <g style="clip-path:url(#id98)">
   </g>
  </g>
  <polygon class="fil1" points="-2267,-440 -1927,-440 -1927,-240 -2267,-240 "/>
  <g>
  </g>
  <g style="clip-path:url(#id99)">
   <g>
   </g>
   <g style="clip-path:url(#id100)">
    <image x="-3834" y="-214" width="422" height="237" xlink:href="estrella_Images\estrella_ImgID38.png"/>
   </g>
   <g style="clip-path:url(#id101)">
   </g>
  </g>
  <polygon class="fil1" points="-3792,-196 -3452,-196 -3452,4 -3792,4 "/>
  <g>
  </g>
  <g style="clip-path:url(#id102)">
   <g>
   </g>
   <g style="clip-path:url(#id103)">
    <image x="-3426" y="-229" width="370" height="370" xlink:href="estrella_Images\estrella_ImgID39.png"/>
   </g>
   <g style="clip-path:url(#id104)">
   </g>
  </g>
  <polygon class="fil1" points="-3411,-196 -3071,-196 -3071,4 -3411,4 "/>
 </g>
</svg>
